<svg xmlns="http://www.w3.org/2000/svg" viewBox="-30 -30 1060 878" role="img" aria-label="Контур автодрома Sepang">
  <title>Sepang International Circuit — схема контура</title>
  <path d="M293 442 L34 464 L23 463 L12 457 L4 450 L0 439 L0 427 L4 415 L14 405 L28 401 L44 404 L73 415 L83 413 L92 405 L94 395 L92 382 L83 368 L63 344 L54 329 L49 311 L46 293 L46 273 L51 223 L59 199 L71 175 L83 160 L103 143 L123 129 L144 122 L262 83 L350 48 L410 23 L448 5 L461 0 L471 0 L480 6 L483 16 L499 108 L509 155 L523 213 L534 235 L545 251 L565 267 L585 277 L604 282 L624 283 L646 279 L668 271 L684 259 L715 226 L730 217 L754 209 L774 208 L795 211 L811 217 L825 229 L999 427 L1000 437 L996 448 L966 514 L958 520 L947 523 L788 532 L639 549 L558 563 L550 569 L548 579 L554 591 L613 623 L625 636 L634 655 L639 675 L638 703 L634 726 L629 749 L615 779 L594 809 L583 816 L572 818 L560 816 L550 809 L368 660 L355 655 L339 654 L321 658 L255 692 L237 698 L216 701 L197 701 L163 694 L139 685 L124 673 L104 646 L97 626 L96 614 L104 600 L122 592 L844 460 L854 451 L862 433 L858 419 L845 405 L823 402 L293 442" fill="none" stroke="#15151e" stroke-width="12" stroke-linejoin="round" stroke-linecap="round"/>
</svg>
